<?xml version="1.0" encoding="utf-8"?>
<!-- Generator: Adobe Illustrator 22.0.1, SVG Export Plug-In . SVG Version: 6.00 Build 0)  -->
<svg version="1.1" id="Calque_1" xmlns="http://www.w3.org/2000/svg" xmlns:xlink="http://www.w3.org/1999/xlink" x="0px" y="0px"
	 viewBox="0 0 90.6 116.7" style="enable-background:new 0 0 90.6 116.7;" xml:space="preserve">
<style type="text/css">
	.st0{fill:#5DBFE6;}
</style>
<g>
	<g>
		<g>
			<path class="st0" d="M18.4,73C11.3,73.3,7.3,81.1,8,87.6c0.8,7,7.5,11.1,14.2,10.4c7.3-0.8,12.8-6,11.9-13.7
				c-0.8-7.4-7.5-12.3-14.7-11.7c-3.2,0.3-3.2,5.3,0,5c10.1-0.8,14,13.4,3.1,15.3c-3.8,0.6-8.2-0.8-9.3-4.8c-1-3.5,0.9-9.9,5.2-10.1
				C21.6,77.9,21.6,72.9,18.4,73L18.4,73z"/>
		</g>
	</g>
	<g>
		<g>
			<path class="st0" d="M60.8,80.7c-7.1,0.3-11.1,8.1-10.4,14.6c0.8,7,7.5,11.1,14.2,10.4c7.3-0.8,12.8-6,11.9-13.7
				c-0.8-7.4-7.5-12.3-14.7-11.7c-3.2,0.3-3.2,5.3,0,5c10.1-0.8,14,13.4,3.1,15.3c-3.8,0.6-8.2-0.8-9.3-4.8c-1-3.5,0.9-9.9,5.2-10.1
				C64,85.5,64,80.5,60.8,80.7L60.8,80.7z"/>
		</g>
	</g>
	<g>
		<g>
			<path class="st0" d="M33.4,89.5c5.2-23.3,9-46.9,11.4-70.6c-0.5,0.6-0.9,1.2-1.4,1.8c9.1-1.5,18,0.4,26.5,3.7
				c3.6,1.4,7.7,2.9,11,5c3.7,2.3,3.9,3.5,3.1,7.6c-0.4,1.9-0.8,3.9-1.2,5.8c-3.6,17.3-7.3,34.7-11,52c-0.5,2.4,3.1,3.4,3.6,1
				c2.4-10.9,4.7-21.8,7-32.7c1.1-5.5,2.3-10.9,3.4-16.4c0.9-4.4,3.1-9.9,2.5-14.4c-0.4-3.3-2.8-4.6-5.6-6.1
				c-4.1-2.1-8.4-4.1-12.7-5.7c-9-3.4-18.2-4.9-27.7-3.4c-0.9,0.1-1.3,1-1.4,1.8C38.7,42.3,35,65.6,29.8,88.5
				C29.3,90.9,32.9,91.9,33.4,89.5L33.4,89.5z"/>
		</g>
	</g>
	<g>
		<g>
			<path class="st0" d="M42,33.7c14.1,2.8,28.1,6,41.9,9.8c2.3,0.6,3.3-3,1-3.6c-13.9-3.8-27.8-7-41.9-9.8
				C40.6,29.6,39.6,33.2,42,33.7L42,33.7z"/>
		</g>
	</g>
</g>
</svg>
